<svg class="icon w-4 h-4 text-secondary" viewBox="0 0 32 32"><path d="M24.473 19.681c-5.725-0.724-10.216-5.2-10.957-10.856l-0.007-0.064c-0.052-0.428-0.082-0.923-0.082-1.426 0-0.74 0.065-1.466 0.19-2.17l-0.011 0.075c0.008-0.052 0.013-0.112 0.013-0.173 0-0.622-0.505-1.127-1.127-1.127-0.132 0-0.259 0.022-0.377 0.065l0.007-0.003c-4.684 1.861-7.934 6.353-7.934 11.605 0 6.878 5.576 12.454 12.454 12.454 4.777 0 8.926-2.69 11.015-6.637l0.032-0.067c0.076-0.147 0.122-0.321 0.122-0.506 0-0.614-0.498-1.112-1.112-1.112-0.022 0-0.044 0.001-0.066 0.002h0.003c-0.225 0.015-0.488 0.023-0.753 0.023-0.497 0-0.988-0.030-1.47-0.088l0.058 0.006z" fill="#1C274C"></path></svg>