<svg class="icon w-4 h-4 text-tertiary" viewBox="0 0 32 32"><path d="M10.364 25.256c0.059 0.005 0.116 0.020 0.169 0.047l2.324 1.161c0.231 0.115 0.327 0.401 0.214 0.637-0.026 0.055-0.062 0.103-0.105 0.144l-2.579 2.397c-0.19 0.176-0.484 0.162-0.657-0.033-0.086-0.097-0.129-0.225-0.119-0.355l0.255-3.558c0.019-0.262 0.241-0.46 0.497-0.44zM22.088 25.523c0.026 0.055 0.041 0.113 0.046 0.174l0.255 3.558c0.019 0.262-0.174 0.491-0.43 0.51-0.127 0.009-0.252-0.035-0.346-0.122l-2.579-2.397c-0.19-0.176-0.204-0.478-0.032-0.673 0.040-0.045 0.087-0.081 0.141-0.108l2.324-1.161c0.231-0.115 0.509-0.018 0.622 0.22zM16 8.068c4.621 0 8.367 3.84 8.367 8.576s-3.747 8.575-8.368 8.575c-4.621 0-8.368-3.84-8.368-8.575s3.746-8.576 8.368-8.576h0.001zM26.547 17.309c0.058 0.014 0.113 0.039 0.16 0.073l2.858 2.036c0.211 0.151 0.263 0.447 0.116 0.663-0.073 0.107-0.185 0.179-0.311 0.198l-3.44 0.546c-0.254 0.041-0.491-0.137-0.531-0.398-0.009-0.060-0.007-0.121 0.006-0.18l0.582-2.582c0.058-0.257 0.307-0.416 0.558-0.357l0.001 0.002zM5.94 17.501c0.033 0.050 0.058 0.105 0.071 0.164l0.582 2.582c0.058 0.257-0.098 0.512-0.349 0.572-0.058 0.014-0.117 0.016-0.176 0.006l-3.44-0.546c-0.254-0.041-0.428-0.283-0.388-0.544 0.020-0.129 0.089-0.244 0.194-0.319l2.858-2.036c0.211-0.151 0.502-0.097 0.648 0.119zM27.106 7.828c0.038 0.125 0.023 0.259-0.038 0.373l-1.698 3.114c-0.125 0.23-0.408 0.312-0.632 0.184-0.051-0.030-0.097-0.069-0.134-0.116l-1.627-2.060c-0.161-0.204-0.131-0.504 0.069-0.67 0.046-0.038 0.099-0.066 0.155-0.085l3.325-1.055c0.245-0.078 0.505 0.063 0.582 0.314l-0.001 0.002zM5.477 7.514l3.325 1.055c0.245 0.078 0.383 0.344 0.306 0.596-0.017 0.058-0.046 0.112-0.083 0.159l-1.627 2.060c-0.161 0.204-0.454 0.236-0.654 0.070-0.046-0.038-0.085-0.085-0.114-0.137l-1.698-3.114c-0.125-0.23-0.045-0.52 0.179-0.648 0.111-0.064 0.242-0.078 0.364-0.039l0.001-0.002zM16.173 2.269c0.118 0.048 0.212 0.144 0.259 0.265l1.293 3.313c0.096 0.245-0.021 0.522-0.259 0.62-0.055 0.022-0.113 0.034-0.173 0.034h-2.585c-0.257 0-0.465-0.213-0.465-0.476 0-0.061 0.012-0.121 0.033-0.177l1.293-3.313c0.095-0.245 0.366-0.363 0.604-0.265z" fill="#1C274C"></path></svg>