<svg class="icon flex-none" viewBox="0 0 32 32"><path d="M16.0121 4.00081C16.7812 3.98381 17.4183 4.59261 17.4361 5.3617L17.4369 12.167L24.1467 12.1637C24.9149 12.1411 25.5577 12.7458 25.5804 13.5141C25.6023 14.2427 25.0607 14.8572 24.3499 14.9398L24.23 14.9487L17.4377 14.9519L17.4361 21.8106C17.3908 22.5247 16.8054 23.0978 16.0768 23.114C15.3077 23.131 14.6706 22.5222 14.6528 21.7531L14.652 14.9527L7.92524 14.956C7.15695 14.9786 6.51415 14.3739 6.49068 13.6056C6.46882 12.877 7.01042 12.2625 7.72123 12.1799L7.84104 12.171L14.6504 12.167L14.6528 5.30341C14.6981 4.58937 15.2834 4.01619 16.0121 4V4.00081ZM7.95519 23.5965H23.9305C24.7789 23.5965 25.4663 24.2839 25.4663 25.1323C25.4663 25.9807 24.7789 26.668 23.9305 26.668H7.95519C7.10676 26.668 6.41943 25.9807 6.41943 25.1323C6.41943 24.2839 7.10676 23.5965 7.95519 23.5965Z" fill="#1C274C"></path></svg>