<?xml version="1.0" encoding="utf-8"?>
<svg width="800px" height="800px" viewBox="0 0 24 24" fill="none" xmlns="http://www.w3.org/2000/svg">
  <rect width="24" height="24" fill="#00000000"/>
  <path fill-rule="evenodd" clip-rule="evenodd" d="M 11.999 2 C 10.124 2 8.548 2.099 7.249 2.388 C 5.939 2.679 4.85 3.176 4.013 4.014 C 3.175 4.851 2.678 5.94 2.387 7.25 C 2.099 8.549 1.999 10.124 1.999 12 C 1.999 13.876 2.099 15.451 2.387 16.75 C 2.678 18.06 3.175 19.149 4.013 19.986 C 4.85 20.824 5.939 21.321 7.249 21.612 C 8.548 21.901 10.124 22 11.999 22 C 13.875 22 15.451 21.901 16.749 21.612 C 18.059 21.321 19.148 20.824 19.986 19.986 C 20.823 19.149 21.32 18.06 21.612 16.75 C 21.9 15.451 21.999 13.876 21.999 12 C 21.999 10.124 21.9 8.549 21.612 7.25 C 21.32 5.94 20.823 4.851 19.986 4.014 C 19.148 3.176 18.059 2.679 16.749 2.388 C 15.451 2.099 13.875 2 11.999 2 Z M 8.445 6.168 C 8.904 5.862 9.525 5.986 9.831 6.445 L 11.999 9.697 L 14.167 6.445 C 14.474 5.986 15.095 5.862 15.554 6.168 C 16.014 6.474 16.138 7.095 15.832 7.555 L 13.535 11 L 14.999 11 C 15.552 11 15.999 11.448 15.999 12 C 15.999 12.552 15.552 13 14.999 13 L 12.999 13 L 12.999 14 L 14.999 14 C 15.552 14 15.999 14.448 15.999 15 C 15.999 15.552 15.552 16 14.999 16 L 12.999 16 L 12.999 17 C 12.999 17.552 12.552 18 11.999 18 C 11.447 18 10.999 17.552 10.999 17 L 10.999 16 L 8.999 16 C 8.447 16 7.999 15.552 7.999 15 C 7.999 14.448 8.447 14 8.999 14 L 10.999 14 L 10.999 13 L 8.999 13 C 8.447 13 7.999 12.552 7.999 12 C 7.999 11.448 8.447 11 8.999 11 L 10.464 11 L 8.167 7.555 C 7.861 7.095 7.985 6.474 8.445 6.168 Z" fill="#1C274C"/>
</svg>